<svg width="18" height="18" viewBox="0 0 18 18" fill="none" xmlns="http://www.w3.org/2000/svg">
<g clip-path="url(#clip0_36_15)">
<path d="M0.28512 13.2485C-0.0618796 13.6038 -0.097929 14.2963 0.208778 14.715C0.469447 15.0709 0.885874 15.0966 1.16907 14.7745L2.30254 13.485C3.16602 12.5026 4.42028 12.5026 5.28376 13.485L5.46484 13.691C6.33147 14.6769 7.56388 14.7916 8.52051 13.9754L9.4345 13.1955C10.418 12.3564 11.6867 12.4762 12.5776 13.4898C13.5314 14.5749 14.9083 14.6252 15.9015 13.6082L17.7149 11.7515C18.0619 11.3962 18.0979 10.7037 17.7912 10.285C17.5306 9.92914 17.1141 9.90336 16.8309 10.2255L15.6975 11.515C14.834 12.4974 13.5797 12.4974 12.7162 11.515L12.5352 11.309C11.6685 10.3231 10.4361 10.2084 9.4795 11.0246L8.5655 11.8045C7.58203 12.6436 6.31332 12.5238 5.42237 11.5102C4.46857 10.4251 3.09173 10.3748 2.09848 11.3918L0.28512 13.2485Z" fill="#FF0055"/>
<path fill-rule="evenodd" clip-rule="evenodd" d="M5.83947e-09 6.5C5.83947e-09 4.567 1.567 3 3.5 3H6.5C6.77614 3 7 3.22386 7 3.5C7 3.77614 6.77614 4 6.5 4H3.5C2.11929 4 1 5.11929 1 6.5C1 7.88071 2.11929 9 3.5 9H4.5C5.32843 9 6 8.32843 6 7.5C6 6.67157 5.32843 6 4.5 6H3.5C3.22386 6 3 6.22386 3 6.5C3 6.77614 3.22386 7 3.5 7H4.5C4.77614 7 5 7.22386 5 7.5C5 7.77614 4.77614 8 4.5 8H3.5C2.67157 8 2 7.32843 2 6.5C2 5.67157 2.67157 5 3.5 5H4.5C5.88071 5 7 6.11929 7 7.5C7 8.88071 5.88071 10 4.5 10H3.5C1.567 10 5.83947e-09 8.433 5.83947e-09 6.5Z" fill="#FF0055"/>
<path fill-rule="evenodd" clip-rule="evenodd" d="M11 6.5C11 4.567 12.567 3 14.5 3H17.5C17.7761 3 18 3.22386 18 3.5C18 3.77614 17.7761 4 17.5 4H14.5C13.1193 4 12 5.11929 12 6.5C12 7.88071 13.1193 9 14.5 9H15.5C16.3284 9 17 8.32843 17 7.5C17 6.67157 16.3284 6 15.5 6H14.5C14.2239 6 14 6.22386 14 6.5C14 6.77614 14.2239 7 14.5 7H15.5C15.7761 7 16 7.22386 16 7.5C16 7.77614 15.7761 8 15.5 8H14.5C13.6716 8 13 7.32843 13 6.5C13 5.67157 13.6716 5 14.5 5H15.5C16.8807 5 18 6.11929 18 7.5C18 8.88071 16.8807 10 15.5 10H14.5C12.567 10 11 8.433 11 6.5Z" fill="#FF0055"/>
</g>
<defs>
<clipPath id="clip0_36_15">
<rect width="18" height="18" fill="white"/>
</clipPath>
</defs>
</svg>
