<svg width="18" height="18" viewBox="0 0 18 18" fill="none" xmlns="http://www.w3.org/2000/svg">
<path d="M0.638504 5C0.638504 3.89543 1.5744 3 2.72888 3H3.77407C4.92855 3 5.86444 3.89543 5.86444 5V6C5.86444 7.10457 4.92855 8 3.77407 8H2.72888C1.5744 8 0.638504 7.10457 0.638504 6V5Z" fill="#00FF8B"/>
<path d="M11.0904 5C11.0904 3.89543 12.0263 3 13.1807 3H14.2259C15.3804 3 16.3163 3.89543 16.3163 5V6C16.3163 7.10457 15.3804 8 14.2259 8H13.1807C12.0263 8 11.0904 7.10457 11.0904 6V5Z" fill="#00FF8B"/>
<path d="M0.115916 10.5C0.264198 10.3581 0.706998 10.498 1.26524 10.7713C3.71758 11.9715 6.26854 12 9 12C11.7065 12 14.2556 11.9591 16.6816 10.7621C17.256 10.4787 17.7158 10.339 17.8841 10.5C18.4067 11 17.0822 12 15.5145 13.5C13.9467 15 11.0904 15 9 15C6.90963 15 4.05331 15 2.48553 13.5C0.917746 12 -0.40668 11 0.115916 10.5Z" fill="#00FF8B"/>
</svg>
