<svg width="18" height="18" viewBox="0 0 18 18" fill="none" xmlns="http://www.w3.org/2000/svg">
<path d="M0.195252 10.5C1.23111 9.52729 2.26698 13.5 8.99763 13.5C15.7283 13.5 16.7691 9.53517 17.805 10.5C18.8408 11.4648 15.7283 15 8.99762 15C2.26698 15 -0.840609 11.4727 0.195252 10.5Z" fill="#DFA022"/>
<path fill-rule="evenodd" clip-rule="evenodd" d="M13.8927 4.27048C13.3312 4.27048 12.7823 4.47857 12.3152 4.86852C12.0088 5.12432 11.434 5.0521 11.2661 4.7367L11.2228 4.65548C11.1316 4.48408 11.1785 4.29045 11.345 4.15144L11.7524 3.81142C12.3862 3.28233 13.1309 3 13.8927 3C14.6544 3 15.3991 3.28233 16.0329 3.81142L16.4403 4.15144C16.6068 4.29045 16.6537 4.48408 16.5625 4.65548L16.5192 4.7367C16.3513 5.0521 15.7765 5.12432 15.4701 4.86852C15.003 4.47857 14.4541 4.27048 13.8927 4.27048Z" fill="#DFA022"/>
<path fill-rule="evenodd" clip-rule="evenodd" d="M4.11606 6.29406C3.55462 6.29406 3.00575 6.50215 2.5386 6.89211C2.23217 7.14791 1.6574 7.07569 1.48947 6.76028L1.44623 6.67907C1.35498 6.50767 1.40193 6.31404 1.56845 6.17503L1.97578 5.83501C2.6096 5.30592 3.35431 5.02358 4.11606 5.02358C4.87782 5.02358 5.62253 5.30592 6.25635 5.83501L6.66368 6.17503C6.8302 6.31404 6.87715 6.50767 6.7859 6.67907L6.74266 6.76028C6.57473 7.07569 5.99996 7.14791 5.69353 6.89211C5.22638 6.50215 4.6775 6.29406 4.11606 6.29406Z" fill="#DFA022"/>
<path d="M2.48664 7.55307C2.48664 6.71487 3.21615 6.03538 4.11606 6.03538C5.01598 6.03538 5.7455 6.71487 5.7455 7.55307C5.7455 8.39126 5.01598 9.07076 4.11606 9.07076C3.21615 9.07076 2.48664 8.39126 2.48664 7.55307Z" fill="#DFA022"/>
<path d="M12.2632 7.55307C12.2632 6.71487 12.9927 6.03538 13.8927 6.03538C14.7926 6.03538 15.5221 6.71487 15.5221 7.55307C15.5221 8.39126 14.7926 9.07076 13.8927 9.07076C12.9927 9.07076 12.2632 8.39126 12.2632 7.55307Z" fill="#DFA022"/>
</svg>
