<svg fill="white" version="1.1" id="Layer_1" xmlns="http://www.w3.org/2000/svg" xmlns:xlink="http://www.w3.org/1999/xlink" 
	 viewBox="0 0 512 512" xml:space="preserve">
<g>
	<g>
		<path d="M503.983,1.069H8.017C3.589,1.069,0,4.657,0,9.086v455.349c0,4.428,3.589,8.017,8.017,8.017h44.467
			c4.427,0,8.017-3.588,8.017-8.017c0-4.428-3.589-8.017-8.017-8.017h-36.45v-18.171h479.933v18.171H314.778
			c-3.185,0-6.07,1.888-7.345,4.807c-8.939,20.455-29.127,33.673-51.433,33.673c-22.305,0-42.494-13.218-51.433-33.673
			c-1.276-2.919-4.16-4.807-7.347-4.807H89.253c-4.427,0-8.017,3.588-8.017,8.017c0,4.428,3.589,8.017,8.017,8.017H192.19
			c12.423,23.541,36.92,38.48,63.81,38.48c26.891,0,51.388-14.939,63.81-38.48h184.174c4.428,0,8.017-3.588,8.017-8.017V9.086
			C512,4.657,508.412,1.069,503.983,1.069z M247.983,422.213H16.033v-54.514h231.95V422.213z M495.967,422.213h-231.95v-54.514
			h231.95V422.213z M495.967,351.666h-231.95v-35.084c0-4.428-3.588-8.017-8.017-8.017c-4.427,0-8.017,3.588-8.017,8.017v35.084
			H16.033V17.102h231.95v262.413c0,4.428,3.589,8.017,8.017,8.017c4.428,0,8.017-3.588,8.017-8.017V17.102h231.95V351.666z"/>
	</g>
</g>
<g>
	<g>
		<path d="M227.011,315.114l-22.167-18.978V256.08l22.664-23.015c3.106-3.154,3.068-8.23-0.087-11.337
			c-3.156-3.107-8.232-3.068-11.337,0.087l-20.056,20.365l-33.856-19.544c-2.48-1.432-5.536-1.433-8.016,0l-38.662,22.318
			c-2.481,1.431-4.008,4.078-4.008,6.943v44.648c0,2.865,1.529,5.511,4.008,6.943l34.15,19.713v10.83
			c0,4.428,3.589,8.017,8.017,8.017s8.017-3.588,8.017-8.017v-10.25l27.953-16.136l22.95,19.649
			c1.511,1.294,3.365,1.927,5.211,1.927c2.261,0,4.508-0.951,6.094-2.803C230.766,323.055,230.373,317.994,227.011,315.114z
			 M188.809,291.915l-30.645,17.69l-30.645-17.69v-35.391l30.645-17.69l30.645,17.69V291.915z"/>
	</g>
</g>
<g>
	<g>
		<path d="M141.244,255.765c-4.427,0-8.017,3.588-8.017,8.017v21.378c0,4.428,3.589,8.017,8.017,8.017s8.017-3.588,8.017-8.017
			v-21.378C149.26,259.354,145.671,255.765,141.244,255.765z"/>
	</g>
</g>
<g>
	<g>
		<path d="M140.292,159.654l-38.662-22.318c-2.48-1.432-5.537-1.432-8.017,0l-31.443,18.156l-22.967-19.656
			c-3.363-2.879-8.424-2.483-11.304,0.878c-2.879,3.364-2.485,8.425,0.879,11.304l22.176,18.978v40.055l-22.674,23.014
			c-3.107,3.153-3.07,8.229,0.084,11.337c1.562,1.538,3.594,2.306,5.626,2.306c2.071,0,4.142-0.798,5.711-2.39l20.065-20.366
			l33.846,19.544c1.241,0.716,2.625,1.074,4.008,1.074c1.383,0,2.767-0.358,4.008-1.074l38.662-22.318
			c2.481-1.432,4.008-4.078,4.008-6.942v-44.637C144.301,163.732,142.772,161.087,140.292,159.654z M128.267,206.606l-30.644,17.69
			l-30.636-17.69v-35.38l30.636-17.69l30.644,17.69V206.606z"/>
	</g>
</g>
<g>
	<g>
		<path d="M114.553,169.954c-4.427,0-8.017,3.588-8.017,8.017v21.378c0,4.428,3.589,8.017,8.017,8.017
			c4.427,0,8.017-3.588,8.017-8.017v-21.378C122.57,173.542,118.981,169.954,114.553,169.954z"/>
	</g>
</g>
<g>
	<g>
		<path d="M227.506,144.256l-22.665-23.013V81.185l22.167-18.978c3.363-2.88,3.755-7.941,0.875-11.304
			c-2.879-3.363-7.941-3.755-11.304-0.875l-22.95,19.649L165.679,53.54V34.739c0-4.428-3.589-8.017-8.017-8.017
			s-8.017,3.588-8.017,8.017V54.12l-34.151,19.714c-2.481,1.431-4.008,4.078-4.008,6.943v44.637c0,2.864,1.527,5.51,4.007,6.942
			l38.662,22.329c1.241,0.716,2.625,1.074,4.009,1.074s2.768-0.358,4.009-1.074l33.849-19.549l20.061,20.37
			c1.569,1.593,3.64,2.391,5.712,2.391c2.031,0,4.063-0.767,5.625-2.305C230.574,152.486,230.613,147.41,227.506,144.256z
			 M188.809,120.786l-30.645,17.699l-30.645-17.699V85.405l30.645-17.69l30.645,17.69V120.786z"/>
	</g>
</g>
<g>
	<g>
		<path d="M141.244,84.143c-4.427,0-8.017,3.588-8.017,8.017v21.378c0,4.428,3.589,8.017,8.017,8.017s8.017-3.588,8.017-8.017V92.16
			C149.26,87.732,145.671,84.143,141.244,84.143z"/>
	</g>
</g>
<g>
	<g>
		<path d="M422.747,107.958h-85.511c-4.428,0-8.017,3.588-8.017,8.017c0,4.428,3.588,8.017,8.017,8.017h85.511
			c4.428,0,8.017-3.588,8.017-8.017C430.764,111.547,427.176,107.958,422.747,107.958z"/>
	</g>
</g>
<g>
	<g>
		<path d="M422.747,176.367h-85.511c-4.428,0-8.017,3.588-8.017,8.017c0,4.428,3.588,8.017,8.017,8.017h85.511
			c4.428,0,8.017-3.588,8.017-8.017C430.764,179.956,427.176,176.367,422.747,176.367z"/>
	</g>
</g>
<g>
	<g>
		<path d="M422.747,244.777h-85.511c-4.428,0-8.017,3.588-8.017,8.017c0,4.428,3.588,8.017,8.017,8.017h85.511
			c4.428,0,8.017-3.588,8.017-8.017C430.764,248.365,427.176,244.777,422.747,244.777z"/>
	</g>
</g>
</svg>