<svg viewBox="0 0 594 313" fill="none" xmlns="http://www.w3.org/2000/svg">
  <path d="M2.35059 169.034C5.57324 176.769 13.9521 181.28 27.6484 182.569C41.3447 183.697 57.2969 183.214 75.5049 180.958C93.7129 178.702 111.276 176.124 128.195 173.062C144.792 170.162 157.844 168.39 167.351 167.584C170.251 167.101 192.004 165.973 192.487 170.323C192.326 173.546 186.848 178.863 175.729 186.437C164.772 194.01 152.526 201.583 139.152 209.479C125.778 217.374 115.305 223.336 107.731 227.525C105.314 228.814 103.703 229.781 102.736 230.265C99.9971 231.876 96.6133 233.81 92.7461 235.904C80.0166 242.833 65.6758 251.051 50.0459 260.558C34.416 270.064 22.9756 278.766 15.5635 286.5C11.6963 291.334 15.4023 294.879 19.5918 290.367C26.5205 283.116 37.6387 275.06 52.7852 266.197C67.9316 257.335 82.1113 249.601 95.4854 242.672C100.642 239.933 105.153 237.516 108.859 235.421C110.148 234.776 111.921 233.81 114.338 232.521C120.3 229.459 128.034 225.108 137.541 219.63C147.209 214.312 156.877 208.512 166.706 202.228C176.535 195.943 184.592 189.82 191.037 184.02C197.482 178.058 200.544 173.224 200.061 169.195C198.449 159.688 177.985 159.688 171.218 159.85C159.777 160.333 142.536 162.267 119.655 165.812C103.703 168.229 87.5898 170.484 71.4766 172.418C55.5244 174.19 41.8281 174.996 30.3877 174.674C19.1084 174.19 12.502 171.773 10.4072 167.262C8.3125 159.205 13.6299 149.054 26.1982 136.646C38.9277 124.239 55.8467 111.51 77.1162 98.458C98.5469 85.2451 121.267 73.3213 145.275 62.5254C169.284 51.7295 191.682 43.9951 212.468 39.1611C233.254 34.3271 249.206 34.0049 260.646 38.3555C268.542 42.0615 271.281 47.2178 269.187 54.1465C267.092 60.9141 261.936 68.0039 253.718 75.5771C245.5 82.9893 236.315 89.4346 226.003 95.0742C215.852 100.553 206.506 103.937 198.288 105.064C196.999 105.064 197.16 104.581 197.805 103.775C197.966 103.614 197.966 103.453 197.966 103.292C198.771 101.842 198.127 100.875 197.321 99.5859C197.16 99.4248 197.16 99.1025 196.999 98.9414C191.198 89.918 172.346 114.732 188.781 114.732C201.994 114.41 215.207 110.865 228.42 104.098C241.794 97.3301 253.073 89.1123 262.419 79.4443C271.765 69.7764 277.082 60.4307 278.371 51.4072C279.66 42.2227 274.826 35.1328 264.03 30.1377C251.945 25.4648 235.026 25.626 212.951 30.46C191.037 35.1328 167.351 43.0283 142.053 53.9854C116.755 64.7812 92.7461 77.1885 70.3486 91.207C47.9512 105.226 30.3877 119.083 17.3359 132.779C4.44531 146.476 -0.549805 158.561 2.35059 169.034ZM227.292 94.752C247.917 91.207 268.22 87.9844 288.2 85.084C293.356 84.2783 292.873 85.5674 290.295 89.2734C289.812 89.918 289.489 90.7236 289.006 91.5293C251.301 153.404 212.951 214.635 173.957 275.221C168.317 283.922 162.839 292.623 157.199 301.485C153.171 310.992 157.199 314.537 166.706 307.447C169.768 305.03 170.412 301.324 166.545 301.324C190.715 263.458 214.724 225.592 238.571 187.564C240.183 184.825 240.666 184.342 241.311 184.02C241.794 183.858 242.277 183.536 243.405 182.408C253.234 173.546 265.319 160.011 279.982 141.803C294.646 123.595 308.825 104.259 322.199 83.6338C324.294 80.25 325.905 79.7666 329.128 79.7666C329.934 79.6055 330.739 79.6055 331.706 79.4443C360.227 76.0605 389.553 74.7715 419.846 75.2549C425.646 75.5771 425.646 70.9043 420.329 70.9043C392.131 70.7432 364.577 71.3877 337.829 73.1602C336.701 73.1602 335.412 73.1602 334.284 73.3213H333.156C328.483 73.9658 328.322 73.3213 332.189 67.3594C332.351 67.1982 332.351 67.0371 332.351 66.876C345.241 45.123 352.814 26.7539 354.909 12.0908C356.198 0.811523 352.17 -0.638672 342.985 7.90137C337.023 13.2188 325.744 29.8154 309.147 57.6914C308.664 58.4971 308.342 59.1416 307.858 59.9473C305.764 63.3311 303.83 66.5537 301.896 69.9375C298.352 76.7051 296.418 77.0273 285.139 78.3164C265.642 80.7334 245.661 83.7949 225.358 87.1787C204.411 92.335 226.809 100.714 227.292 95.7188V94.752ZM311.403 69.293C312.209 67.8428 313.176 66.3926 313.981 64.9424C314.626 63.8145 315.271 62.8477 315.915 61.7197C330.256 37.7109 340.246 22.4033 346.047 15.958C341.374 31.5879 333.156 49.6348 321.232 70.0986C318.654 74.2881 318.171 74.9326 314.787 74.9326L309.953 75.416C308.02 75.5771 309.309 72.999 311.403 69.293ZM301.252 86.2119C303.347 82.5059 306.086 82.0225 309.792 81.8613C310.114 81.8613 310.437 81.8613 310.598 81.7002H311.081C314.465 81.3779 314.304 81.5391 310.759 87.501C293.356 114.894 276.599 138.097 260.324 156.949C254.04 163.878 253.557 163.233 259.196 154.854C269.992 138.258 280.305 121.822 289.812 105.226C293.84 98.6191 297.546 92.1738 301.252 86.2119ZM323.488 151.954C317.526 151.793 310.759 154.532 303.508 160.172C296.257 165.65 289.973 172.096 284.494 179.347C279.016 186.598 275.954 192.882 275.471 198.199C275.31 206.095 278.21 210.445 284.172 211.412C290.134 212.379 297.546 211.412 306.086 208.351C314.626 205.289 322.844 201.744 330.417 197.716C338.151 193.526 343.63 190.304 346.853 188.048C355.07 182.086 349.753 180.475 346.047 182.892C344.274 184.02 340.246 186.275 333.801 189.498C327.355 192.56 320.266 195.621 312.531 198.683C304.797 201.744 298.19 203.517 292.551 204C286.911 204.483 284.172 202.711 284.172 198.683C284.494 195.943 285.783 192.882 287.878 189.498C290.134 185.953 292.067 183.053 293.84 180.958C296.257 183.214 300.285 183.375 305.603 181.28C311.081 179.186 316.398 175.963 321.394 171.773C326.389 167.584 329.611 163.556 330.739 159.688C331.867 155.821 329.45 153.243 323.488 151.954ZM320.266 160.816C324.294 159.688 324.294 160.333 322.199 162.75C319.782 165.167 316.398 167.906 311.887 170.968C307.375 173.868 303.508 175.963 300.446 177.091C288.684 180.958 315.432 162.428 320.266 160.816ZM347.175 207.545C363.127 204.483 381.979 201.261 404.055 197.877C408.244 196.91 406.794 193.204 402.766 193.849C391.809 195.621 381.657 197.071 372.473 198.36C364.255 199.488 356.682 200.616 349.431 201.744C348.947 201.905 348.625 201.905 348.142 201.905C343.146 202.872 343.469 202.711 348.625 193.688C349.753 191.915 350.881 189.659 352.331 187.242C353.781 185.147 355.231 183.536 356.843 182.086C357.326 181.603 357.81 180.958 358.293 180.475C364.738 174.029 373.762 164.361 385.202 151.31C396.804 138.258 407.6 124.239 417.59 109.415C427.58 94.5908 433.381 81.2168 435.153 69.293C432.575 60.2695 425.002 64.2979 421.135 69.6152C407.761 87.6621 383.913 123.434 349.753 176.93C347.98 178.38 346.369 180.313 346.369 182.892C345.563 184.181 344.597 185.47 343.791 186.92C341.052 191.109 338.635 195.299 336.218 199.327C333.479 204.322 332.834 204.483 326.066 205.772C266.608 216.568 252.912 223.819 254.846 234.938C255.651 239.61 260.485 243.961 266.125 248.312C272.57 253.468 278.21 258.463 277.727 264.103C277.565 264.586 276.921 265.23 276.438 265.392C275.632 266.036 274.987 266.681 276.276 267.325C279.338 268.131 281.433 265.553 282.077 262.975C283.527 257.013 277.727 251.534 271.12 246.861C266.447 243.155 262.258 239.449 261.452 236.065C260.485 233.004 264.353 229.62 273.215 225.753C282.077 221.886 298.835 217.374 323.649 212.218C328.967 210.929 329.128 211.412 327.194 214.151L326.228 215.602C318.493 227.687 311.564 238.805 305.28 248.795C298.996 258.946 291.906 270.064 284.333 282.149C283.527 282.955 282.561 282.955 281.755 282.955C280.305 282.633 278.854 282.633 277.888 286.178C272.731 299.068 286.267 297.457 290.939 286.983C300.285 271.998 308.825 257.979 316.721 245.25C322.683 235.421 329.289 224.625 336.54 213.023C338.957 209.156 340.568 208.512 345.886 207.706C346.369 207.706 346.691 207.706 347.175 207.545ZM391.97 125.206C406.794 103.131 416.301 89.918 420.49 85.5674C424.841 81.2168 424.357 83.3115 419.362 91.8516C414.367 100.392 405.505 112.799 392.453 129.073C378.112 147.12 377.951 145.831 391.97 125.206ZM405.183 207.545C421.135 204.483 439.987 201.261 462.062 197.877C466.252 196.91 464.802 193.204 460.773 193.849C449.816 195.621 439.665 197.071 430.48 198.36C422.263 199.488 414.689 200.616 407.438 201.744C406.955 201.905 406.633 201.905 406.149 201.905C401.154 202.872 401.477 202.711 406.633 193.688C407.761 191.915 408.889 189.659 410.339 187.242C411.789 185.147 413.239 183.536 414.851 182.086C415.334 181.603 415.817 180.958 416.301 180.475C422.746 174.029 431.77 164.361 443.21 151.31C454.812 138.258 465.607 124.239 475.598 109.415C485.588 94.5908 491.389 81.2168 493.161 69.293C490.583 60.2695 483.01 64.2979 479.143 69.6152C465.769 87.6621 441.921 123.434 407.761 176.93C405.988 178.38 404.377 180.313 404.377 182.892C403.571 184.181 402.604 185.47 401.799 186.92C399.06 191.109 396.643 195.299 394.226 199.327C391.486 204.322 390.842 204.483 384.074 205.772C324.616 216.568 310.92 223.819 312.854 234.938C313.659 239.61 318.493 243.961 324.133 248.312C330.578 253.468 336.218 258.463 335.734 264.103C335.573 264.586 334.929 265.23 334.445 265.392C333.64 266.036 332.995 266.681 334.284 267.325C337.346 268.131 339.44 265.553 340.085 262.975C341.535 257.013 335.734 251.534 329.128 246.861C324.455 243.155 320.266 239.449 319.46 236.065C318.493 233.004 322.36 229.62 331.223 225.753C340.085 221.886 356.843 217.374 381.657 212.218C386.975 210.929 387.136 211.412 385.202 214.151L384.235 215.602C376.501 227.687 369.572 238.805 363.288 248.795C357.004 258.946 349.914 270.064 342.341 282.149C341.535 282.955 340.568 282.955 339.763 282.955C338.312 282.633 336.862 282.633 335.896 286.178C330.739 299.068 344.274 297.457 348.947 286.983C358.293 271.998 366.833 257.979 374.729 245.25C380.69 235.421 387.297 224.625 394.548 213.023C396.965 209.156 398.576 208.512 403.894 207.706C404.377 207.706 404.699 207.706 405.183 207.545ZM449.978 125.206C464.802 103.131 474.309 89.918 478.498 85.5674C482.849 81.2168 482.365 83.3115 477.37 91.8516C472.375 100.392 463.513 112.799 450.461 129.073C436.12 147.12 435.959 145.831 449.978 125.206ZM502.99 151.954C497.028 151.793 490.261 154.532 483.01 160.172C475.759 165.65 469.475 172.096 463.996 179.347C458.518 186.598 455.456 192.882 454.973 198.199C454.812 206.095 457.712 210.445 463.674 211.412C469.636 212.379 477.048 211.412 485.588 208.351C494.128 205.289 502.346 201.744 509.919 197.716C517.653 193.526 523.132 190.304 526.354 188.048C534.572 182.086 529.255 180.475 525.549 182.892C523.776 184.02 519.748 186.275 513.303 189.498C506.857 192.56 499.768 195.621 492.033 198.683C484.299 201.744 477.692 203.517 472.053 204C466.413 204.483 463.674 202.711 463.674 198.683C463.996 195.943 465.285 192.882 467.38 189.498C469.636 185.953 471.569 183.053 473.342 180.958C475.759 183.214 479.787 183.375 485.104 181.28C490.583 179.186 495.9 175.963 500.896 171.773C505.891 167.584 509.113 163.556 510.241 159.688C511.369 155.821 508.952 153.243 502.99 151.954ZM499.768 160.816C503.796 159.688 503.796 160.333 501.701 162.75C499.284 165.167 495.9 167.906 491.389 170.968C486.877 173.868 483.01 175.963 479.948 177.091C468.186 180.958 494.934 162.428 499.768 160.816ZM513.786 204.967C512.497 209.479 516.203 211.734 520.554 209.801C526.354 206.739 535.217 199.327 544.401 191.109C554.875 181.603 564.704 173.385 569.216 172.901C567.766 182.086 568.571 188.692 571.633 192.56C574.694 196.266 581.14 195.138 590.808 189.015C593.708 187.081 593.386 182.247 589.035 184.986C574.372 194.815 574.694 187.887 575.661 179.669C576.145 175.963 576.145 172.74 575.661 169.84C575.178 166.778 572.922 165.328 569.055 165.167C566.638 165.328 562.448 167.584 556.647 171.612C551.008 175.641 545.207 179.991 539.406 184.664C533.767 189.337 529.577 192.882 526.999 195.299C530.705 188.692 535.056 181.28 539.89 173.062C544.885 164.845 549.235 157.433 553.264 150.987C553.747 150.021 554.069 149.054 554.069 148.087V147.765V147.281C553.586 145.831 552.619 144.703 551.008 144.22C550.202 143.897 549.396 143.897 548.43 144.22L548.107 144.381C546.818 144.703 544.724 146.314 541.984 149.376C540.695 150.826 540.695 152.921 541.984 154.693C540.373 157.433 538.439 160.494 536.184 164.2C532.155 171.129 527.966 178.219 523.615 185.792C519.265 193.365 515.881 199.649 513.786 204.967Z" />
</svg>
